# This file uses centimeters as units for non-parametric coordinates.

mtllib M_Cabinet.mtl
g default
v -406.767944 -0.000276 101.685738
v -276.551880 -0.000276 101.685738
v -276.551880 -0.000276 -130.662964
v -406.767944 -0.000276 -130.662949
v -276.551880 73.539192 101.685738
v -406.767944 73.539192 101.685738
v -276.551880 73.539192 -130.662964
v -406.767944 73.539192 -130.662949
vt 0.375000 0.388625
vt 0.408722 0.388625
vt 0.408722 0.500000
vt 0.687500 0.250000
vt 0.375000 0.388625
vt 0.408722 0.388625
vt 0.408722 0.500000
vt 0.687500 0.250000
vt 0.375000 0.388625
vt 0.408722 0.388625
vt 0.408722 0.500000
vt 0.687500 0.250000
vn 0.000000 1.000000 0.000000
vn 0.000000 1.000000 0.000000
vn 0.000000 1.000000 0.000000
vn 0.000000 1.000000 0.000000
vn 0.000000 -1.000000 0.000000
vn 0.000000 -1.000000 0.000000
vn 0.000000 -1.000000 0.000000
vn 0.000000 -1.000000 0.000000
vn 0.000000 0.000000 1.000000
vn 0.000000 0.000000 1.000000
vn 0.000000 0.000000 1.000000
vn 0.000000 0.000000 1.000000
vn 1.000000 0.000000 0.000000
vn 1.000000 0.000000 0.000000
vn 1.000000 0.000000 0.000000
vn 1.000000 0.000000 0.000000
vn -0.000000 0.000000 -1.000000
vn -0.000000 0.000000 -1.000000
vn -0.000000 0.000000 -1.000000
vn -0.000000 0.000000 -1.000000
vn -1.000000 0.000000 0.000000
vn -1.000000 0.000000 0.000000
vn -1.000000 0.000000 0.000000
vn -1.000000 0.000000 0.000000
s off
g M_Cabinet
usemtl initialShadingGroup
f 6/9/1 5/10/2 7/11/3 8/12/4
f 1/5/5 4/8/6 3/7/7 2/6/8
f 1/1/9 2/2/10 5/10/11 6/9/12
f 2/2/13 3/3/14 7/11/15 5/10/16
f 3/3/17 4/4/18 8/12/19 7/11/20
f 4/4/21 1/1/22 6/9/23 8/12/24
