# This file uses centimeters as units for non-parametric coordinates.

mtllib M_Chair.mtl
g default
v 409.789642 -0.984425 24.543730
v 412.194244 -0.984425 -22.394661
v 409.789642 46.015575 24.543730
v 412.194244 46.015575 -22.394661
v 367.844635 46.015575 22.394951
v 370.249237 46.015575 -24.543444
v 367.844635 -0.984425 22.394951
v 370.249237 -0.984425 -24.543444
v 409.976044 46.015575 20.904968
v 368.031067 46.015575 18.756187
v 368.031067 -0.984425 18.756187
v 409.976044 -0.984425 20.904968
v 412.194244 43.066574 -22.394661
v 409.976044 43.066574 20.904968
v 409.789642 43.066574 24.543730
v 367.844635 43.066574 22.394951
v 368.031067 43.066574 18.756187
v 370.249237 43.066574 -24.543444
v 412.006409 43.066574 -18.728226
v 412.006409 -0.984425 -18.728226
v 370.061401 -0.984425 -20.877008
v 370.061401 43.066574 -20.877008
v 370.061401 46.015575 -20.877008
v 412.006409 46.015575 -18.728226
v 412.006409 3.543240 -18.728226
v 412.194244 3.543240 -22.394661
v 370.249237 3.543240 -24.543444
v 370.061401 3.543240 -20.877008
v 368.031067 3.543240 18.756187
v 367.844635 3.543240 22.394951
v 409.789642 3.543240 24.543730
v 409.976044 3.543240 20.904968
v 412.338959 92.059097 -25.219505
v 412.526764 92.059097 -28.885887
v 370.581757 92.059097 -31.034666
v 370.393951 92.059097 -27.368288
vt 0.375000 0.000000
vt 0.625000 0.000000
vt 0.375000 0.250000
vt 0.625000 0.250000
vt 0.375000 0.500000
vt 0.625000 0.500000
vt 0.375000 0.750000
vt 0.625000 0.750000
vt 0.375000 1.000000
vt 0.625000 1.000000
vt 0.875000 0.000000
vt 0.875000 0.250000
vt 0.125000 0.000000
vt 0.125000 0.250000
vt 0.394380 0.250000
vt 0.394380 0.500000
vt 0.394380 0.750000
vt 0.394380 0.000000
vt 0.394380 1.000000
vt 0.625000 0.234314
vt 0.394380 0.234314
vt 0.375000 0.234314
vt 0.125000 0.234314
vt 0.375000 0.515686
vt 0.394380 0.515686
vt 0.750000 0.375000
vt 0.605472 0.234314
vt 0.605472 0.000000
vt 0.605472 1.000000
vt 0.605472 0.750000
vt 0.605472 0.515686
vt 0.605472 0.500000
vt 0.605472 0.250000
vt 0.605472 0.024083
vt 0.625000 0.024083
vt 0.750000 0.375000
vt 0.605472 0.725917
vt 0.394380 0.725917
vt 0.125000 0.024083
vt 0.375000 0.725917
vt 0.375000 0.024083
vt 0.394380 0.024083
vt 0.605472 0.250000
vt 0.625000 0.250000
vt 0.625000 0.500000
vt 0.605472 0.500000
vn 0.998691 0.000000 0.051160
vn 0.998690 0.000000 0.051161
vn 0.998690 0.000000 0.051161
vn 0.998690 0.000000 0.051160
vn 0.000000 1.000000 -0.000001
vn 0.000000 1.000000 -0.000000
vn 0.000000 1.000000 -0.000000
vn 0.000000 1.000000 -0.000001
vn -0.998690 0.000000 -0.051168
vn -0.998690 0.000000 -0.051165
vn -0.998690 0.000000 -0.051164
vn -0.998690 0.000000 -0.051168
vn 0.000000 -1.000000 0.000000
vn 0.000000 -1.000000 -0.000000
vn 0.000000 -1.000000 -0.000000
vn 0.000000 -1.000000 0.000000
vn -0.051161 0.000000 0.998690
vn -0.051161 0.000000 0.998690
vn -0.051161 0.000000 0.998690
vn -0.051161 0.000000 0.998690
vn 0.000000 1.000000 0.000000
vn 0.000000 1.000000 0.000000
vn 0.000000 1.000000 0.000000
vn 0.000000 1.000000 0.000000
vn 0.000000 -1.000000 -0.000000
vn 0.000000 -1.000000 -0.000000
vn 0.000000 -1.000000 -0.000000
vn 0.000000 -1.000000 -0.000000
vn 0.998690 0.000001 0.051161
vn 0.998690 0.000000 0.051162
vn 0.998690 0.000000 0.051164
vn 0.998690 0.000001 0.051161
vn 0.998690 0.000000 0.051162
vn 0.998691 0.000000 0.051159
vn -0.051161 0.000000 0.998690
vn -0.051161 0.000000 0.998690
vn -0.998690 0.000000 -0.051168
vn -0.998690 0.000000 -0.051162
vn -0.998690 0.000000 -0.051164
vn -0.998690 0.000000 -0.051161
vn -0.998690 -0.000001 -0.051161
vn -0.998690 -0.000001 -0.051161
vn 0.051161 0.000000 -0.998690
vn 0.051161 0.000000 -0.998690
vn 0.050717 -0.131516 -0.990016
vn 0.050717 -0.131516 -0.990016
vn 0.000000 1.000000 0.000000
vn 0.000000 1.000000 0.000000
vn 0.998690 0.000000 0.051162
vn 0.998690 0.000000 0.051162
vn 0.998690 0.000000 0.051164
vn 0.998690 0.000000 0.051164
vn 0.051161 0.000000 -0.998690
vn 0.051161 0.000000 -0.998690
vn 0.051161 0.000000 -0.998690
vn 0.051161 0.000000 -0.998690
vn -0.998690 0.000000 -0.051161
vn -0.998690 0.000000 -0.051161
vn -0.998690 0.000000 -0.051164
vn -0.998690 0.000000 -0.051164
vn -0.998690 0.000000 -0.051162
vn -0.998690 0.000000 -0.051168
vn -0.051161 0.000000 0.998690
vn -0.051161 0.000000 0.998690
vn 0.998690 0.000000 0.051160
vn 0.998690 0.000000 0.051162
vn 0.000000 1.000000 -0.000000
vn 0.000000 1.000000 -0.000000
vn 0.000000 1.000000 -0.000000
vn 0.000000 1.000000 -0.000000
vn 0.000000 1.000000 0.000000
vn 0.000000 1.000000 0.000000
vn 0.000000 1.000000 0.000000
vn 0.000000 1.000000 0.000000
vn 0.000000 -1.000000 0.000000
vn 0.000000 -1.000000 0.000000
vn 0.000000 -1.000000 0.000000
vn 0.000000 -1.000000 0.000000
vn 0.000000 -1.000000 0.000000
vn 0.000000 -1.000000 0.000000
vn 0.000000 -1.000000 0.000000
vn 0.000000 -1.000000 0.000000
vn 0.051161 0.000000 -0.998690
vn 0.051161 0.000000 -0.998690
vn 0.051161 0.000000 -0.998690
vn 0.051161 0.000000 -0.998690
vn 0.998690 0.000001 0.051160
vn 0.998690 0.000001 0.051160
vn 0.050659 -0.139779 -0.988886
vn 0.050659 -0.139779 -0.988886
vn -0.998690 -0.000001 -0.051160
vn -0.998691 -0.000001 -0.051160
vn -0.050659 0.139780 0.988886
vn -0.050659 0.139780 0.988886
vn -0.050659 0.139780 0.988886
vn -0.050659 0.139780 0.988886
s 1
g M_Chair
usemtl initialShadingGroup
f 31/41/1 32/42/2 14/21/3 15/22/4
s 2
f 3/3/5 9/15/6 10/16/7 5/5/8
s 3
f 16/24/9 17/25/10 29/38/11 30/40/12
s 4
f 7/7/13 11/17/14 12/19/15 1/9/16
s 5
f 30/39/17 31/41/18 15/22/19 16/23/20
s off
f 33/43/21 34/44/22 35/45/23 36/46/24
s 4
f 20/29/25 21/30/26 8/8/27 2/10/28
s 1
f 24/33/29 19/27/30 13/20/31 4/4/32
f 15/22/4 14/21/3 9/15/33 3/3/34
s 5
f 16/23/20 15/22/19 3/3/35 5/14/36
s 3
f 5/5/37 10/16/38 17/25/10 16/24/9
f 18/26/39 22/31/40 23/32/41 6/6/42
s 7
f 13/20/43 18/26/44 6/12/45 4/4/46
s 4
f 12/19/15 11/17/14 21/30/26 20/29/25
s 3
f 23/32/41 22/31/40 17/25/10 10/16/38
s 2
f 9/15/6 24/33/47 23/32/48 10/16/7
s 1
f 9/15/33 14/21/3 19/27/30 24/33/29
f 25/34/49 20/28/50 2/2/51 26/35/52
s off
f 2/2/53 8/11/54 27/36/55 26/35/56
s 3
f 21/30/57 28/37/58 27/36/59 8/8/60
f 11/17/61 29/38/11 28/37/58 21/30/57
f 30/40/12 29/38/11 11/17/61 7/7/62
s 5
f 7/13/63 1/1/64 31/41/18 30/39/17
s 1
f 1/1/65 12/18/66 32/42/2 31/41/1
f 25/34/49 32/42/2 12/18/66 20/28/50
s off
f 32/42/67 25/34/68 28/37/69 29/38/70
f 25/34/71 26/35/72 27/36/73 28/37/74
f 13/20/75 19/27/76 22/31/77 18/26/78
f 19/27/79 14/21/80 17/25/81 22/31/82
f 29/38/83 17/25/84 14/21/85 32/42/86
s 1
f 24/33/29 4/4/32 34/44/87 33/43/88
s 7
f 4/4/46 6/6/45 35/45/89 34/44/90
s 3
f 6/6/42 23/32/41 36/46/91 35/45/92
s off
f 23/32/93 24/33/94 33/43/95 36/46/96
