# This file uses centimeters as units for non-parametric coordinates.

mtllib M_Computer.mtl
g default
v -319.491669 80.206894 277.244324
v -301.402435 80.206894 274.390991
v -319.491669 82.034370 277.244324
v -301.402435 82.034370 274.390991
v -329.489929 82.034370 213.858582
v -311.400726 82.034370 211.005249
v -329.489929 80.206894 213.858582
v -311.400726 80.206894 211.005249
v -346.105865 77.673897 330.654419
v -306.560547 77.673897 299.675293
v -346.105865 123.812653 330.654419
v -321.044708 123.812653 311.021912
v -387.928741 123.812653 277.266876
v -362.867584 123.812653 257.634399
v -387.928741 77.673897 277.266876
v -348.383453 77.673897 246.287750
vt 0.375000 0.000000
vt 0.625000 0.000000
vt 0.375000 0.250000
vt 0.625000 0.250000
vt 0.375000 0.500000
vt 0.625000 0.500000
vt 0.375000 0.750000
vt 0.625000 0.750000
vt 0.375000 1.000000
vt 0.625000 1.000000
vt 0.875000 0.000000
vt 0.875000 0.250000
vt 0.125000 0.000000
vt 0.125000 0.250000
vt 0.375000 0.000000
vt 0.625000 0.000000
vt 0.625000 0.250000
vt 0.375000 0.250000
vt 0.625000 0.500000
vt 0.375000 0.500000
vt 0.625000 0.750000
vt 0.375000 0.750000
vt 0.625000 1.000000
vt 0.375000 1.000000
vt 0.875000 0.000000
vt 0.875000 0.250000
vt 0.125000 0.000000
vt 0.125000 0.250000
vn 0.155811 0.000000 0.987787
vn 0.155811 0.000000 0.987787
vn 0.155811 0.000000 0.987787
vn 0.155811 0.000000 0.987787
vn 0.000000 1.000000 0.000000
vn 0.000000 1.000000 0.000000
vn 0.000000 1.000000 0.000000
vn 0.000000 1.000000 0.000000
vn -0.155810 0.000000 -0.987787
vn -0.155810 0.000000 -0.987787
vn -0.155810 0.000000 -0.987787
vn -0.155810 0.000000 -0.987787
vn 0.000000 -1.000000 0.000000
vn 0.000000 -1.000000 0.000000
vn 0.000000 -1.000000 0.000000
vn 0.000000 -1.000000 0.000000
vn 0.987787 0.000000 -0.155811
vn 0.987787 0.000000 -0.155811
vn 0.987787 0.000000 -0.155811
vn 0.987787 0.000000 -0.155811
vn -0.987787 0.000000 0.155810
vn -0.987787 0.000000 0.155810
vn -0.987787 0.000000 0.155810
vn -0.987787 0.000000 0.155810
vn 0.616686 0.000001 0.787209
vn 0.616686 0.000001 0.787209
vn 0.616686 0.000001 0.787209
vn 0.616686 0.000001 0.787209
vn 0.000000 1.000000 0.000000
vn 0.000000 1.000000 0.000000
vn 0.000000 1.000000 0.000000
vn 0.000000 1.000000 0.000000
vn -0.616686 0.000001 -0.787209
vn -0.616686 0.000001 -0.787209
vn -0.616686 0.000001 -0.787209
vn -0.616686 0.000001 -0.787209
vn 0.000000 -1.000000 0.000000
vn 0.000000 -1.000000 0.000000
vn 0.000000 -1.000000 0.000000
vn 0.000000 -1.000000 0.000000
vn 0.731211 0.370417 -0.572819
vn 0.731211 0.370417 -0.572819
vn 0.731211 0.370417 -0.572819
vn 0.731211 0.370417 -0.572819
vn -0.787209 0.000000 0.616686
vn -0.787209 0.000000 0.616686
vn -0.787209 0.000000 0.616686
vn -0.787209 0.000000 0.616686
s off
g M_Computer
usemtl initialShadingGroup
f 1/1/1 2/2/2 4/4/3 3/3/4
f 3/3/5 4/4/6 6/6/7 5/5/8
f 5/5/9 6/6/10 8/8/11 7/7/12
f 7/7/13 8/8/14 2/10/15 1/9/16
f 2/2/17 8/11/18 6/12/19 4/4/20
f 7/13/21 1/1/22 3/3/23 5/14/24
f 9/15/25 10/16/26 12/17/27 11/18/28
f 11/18/29 12/17/30 14/19/31 13/20/32
f 13/20/33 14/19/34 16/21/35 15/22/36
f 15/22/37 16/21/38 10/23/39 9/24/40
f 10/16/41 16/25/42 14/26/43 12/17/44
f 15/27/45 9/15/46 11/18/47 13/28/48
