# This file uses centimeters as units for non-parametric coordinates.

mtllib M_Garbagecan.mtl
g default
v -256.228729 0.157188 328.036285
v -258.783356 0.157188 324.213074
v -262.606628 0.157188 321.658447
v -267.116486 0.157188 320.761383
v -271.626343 0.157188 321.658417
v -275.449585 0.157188 324.213013
v -278.004211 0.157188 328.036285
v -278.901306 0.157188 332.546143
v -278.004272 0.157188 337.056000
v -275.449615 0.157188 340.879272
v -271.626343 0.157188 343.433868
v -267.116486 0.157188 344.330963
v -262.606628 0.157188 343.433899
v -258.783356 0.157188 340.879272
v -256.228760 0.157188 337.056000
v -255.331696 0.157188 332.546143
v -253.941925 28.677277 327.089081
v -257.033112 28.677277 322.462799
v -261.659393 28.677277 319.371613
v -267.116486 28.677277 318.286133
v -272.573547 28.677277 319.371613
v -277.199860 28.677277 322.462799
v -280.291046 28.677277 327.089050
v -281.376526 28.677277 332.546143
v -280.291046 28.677277 338.003235
v -277.199860 28.677277 342.629517
v -272.573578 28.677277 345.720703
v -267.116486 28.677277 346.806183
v -261.659393 28.677277 345.720703
v -257.033112 28.677277 342.629517
v -253.941925 28.677277 338.003235
v -252.856445 28.677277 332.546143
v -267.116486 0.157188 332.546143
v -257.093933 1.157188 328.394745
v -259.445526 1.157188 324.875275
v -257.751221 28.765427 323.181061
v -254.880249 28.765419 327.477692
v -262.965027 1.157188 322.523621
v -262.048004 28.765434 320.309937
v -267.116486 1.157188 321.697876
v -267.116516 28.765427 319.301727
v -271.268036 1.157188 322.523651
v -272.184906 28.765427 320.309937
v -274.787354 1.157188 324.875153
v -276.481720 28.765427 323.180939
v -277.139008 1.157188 328.394684
v -279.352753 28.765434 327.477753
v -277.964783 1.157188 332.546143
v -280.360870 28.765427 332.546143
v -277.139038 1.157188 336.697601
v -279.352692 28.765434 337.614655
v -274.787476 1.157188 340.217010
v -276.481720 28.765419 341.911346
v -271.268005 1.157188 342.568695
v -272.184967 28.765427 344.782379
v -267.116394 1.157188 343.394470
v -267.116455 28.765427 345.790588
v -262.965088 1.157188 342.568695
v -262.048126 28.765427 344.782379
v -259.445557 1.157188 340.217072
v -257.751282 28.765427 341.911407
v -257.093964 1.157188 336.697601
v -254.880249 28.765427 337.614594
v -256.268158 1.157188 332.546143
v -253.872070 28.765427 332.546143
v -267.116486 1.157188 332.546143
vt 0.644356 0.096456
vt 0.610485 0.045765
vt 0.559794 0.011894
vt 0.500000 0.000000
vt 0.440206 0.011894
vt 0.389515 0.045765
vt 0.355644 0.096456
vt 0.343750 0.156250
vt 0.355644 0.216044
vt 0.389515 0.266735
vt 0.440206 0.300606
vt 0.500000 0.312500
vt 0.559794 0.300606
vt 0.610485 0.266735
vt 0.644356 0.216044
vt 0.656250 0.156250
vt 0.375000 0.312500
vt 0.390625 0.312500
vt 0.406250 0.312500
vt 0.421875 0.312500
vt 0.437500 0.312500
vt 0.453125 0.312500
vt 0.468750 0.312500
vt 0.484375 0.312500
vt 0.500000 0.312500
vt 0.515625 0.312500
vt 0.531250 0.312500
vt 0.546875 0.312500
vt 0.562500 0.312500
vt 0.578125 0.312500
vt 0.593750 0.312500
vt 0.609375 0.312500
vt 0.625000 0.312500
vt 0.375000 0.688440
vt 0.390625 0.688440
vt 0.406250 0.688440
vt 0.421875 0.688440
vt 0.437500 0.688440
vt 0.453125 0.688440
vt 0.468750 0.688440
vt 0.484375 0.688440
vt 0.500000 0.688440
vt 0.515625 0.688440
vt 0.531250 0.688440
vt 0.546875 0.688440
vt 0.562500 0.688440
vt 0.578125 0.688440
vt 0.593750 0.688440
vt 0.609375 0.688440
vt 0.625000 0.688440
vt 0.500000 0.150000
vt 0.375000 0.312500
vt 0.390625 0.312500
vt 0.390625 0.688440
vt 0.375000 0.688440
vt 0.406250 0.312500
vt 0.406250 0.688440
vt 0.421875 0.312500
vt 0.421875 0.688440
vt 0.437500 0.312500
vt 0.437500 0.688440
vt 0.453125 0.312500
vt 0.453125 0.688440
vt 0.468750 0.312500
vt 0.468750 0.688440
vt 0.484375 0.312500
vt 0.484375 0.688440
vt 0.500000 0.312500
vt 0.500000 0.688440
vt 0.515625 0.312500
vt 0.515625 0.688440
vt 0.531250 0.312500
vt 0.531250 0.688440
vt 0.546875 0.312500
vt 0.546875 0.688440
vt 0.562500 0.312500
vt 0.562500 0.688440
vt 0.578125 0.312500
vt 0.578125 0.688440
vt 0.593750 0.312500
vt 0.593750 0.688440
vt 0.609375 0.312500
vt 0.609375 0.688440
vt 0.625000 0.312500
vt 0.625000 0.688440
vt 0.610485 0.045765
vt 0.644356 0.096456
vt 0.500000 0.150000
vt 0.559794 0.011894
vt 0.500000 0.000000
vt 0.440206 0.011894
vt 0.389515 0.045765
vt 0.355644 0.096456
vt 0.343750 0.156250
vt 0.355644 0.216044
vt 0.389515 0.266735
vt 0.440206 0.300606
vt 0.500000 0.312500
vt 0.559794 0.300606
vt 0.610485 0.266735
vt 0.644356 0.216044
vt 0.656250 0.156250
vt 0.390625 0.688440
vt 0.375000 0.688440
vt 0.406250 0.688440
vt 0.421875 0.688440
vt 0.437500 0.688440
vt 0.453125 0.688440
vt 0.468750 0.688440
vt 0.484375 0.688440
vt 0.500000 0.688440
vt 0.515625 0.688440
vt 0.531250 0.688440
vt 0.546875 0.688440
vt 0.562500 0.688440
vt 0.578125 0.688440
vt 0.593750 0.688440
vt 0.609375 0.688440
vt 0.625000 0.688440
vn -0.920420 0.086464 0.381250
vn -0.920419 0.086464 0.381251
vn -0.704459 0.086464 0.704458
vn -0.704459 0.086464 0.704458
vn -0.381255 0.086464 0.920418
vn -0.381254 0.086464 0.920418
vn 0.000000 0.086465 0.996255
vn -0.000000 0.086465 0.996255
vn 0.381245 0.086464 0.920422
vn 0.381245 0.086464 0.920422
vn 0.704459 0.086464 0.704459
vn 0.704458 0.086464 0.704459
vn 0.920420 0.086466 0.381249
vn 0.920420 0.086466 0.381249
vn 0.996255 0.086464 -0.000002
vn 0.996255 0.086464 -0.000002
vn 0.920422 0.086464 -0.381245
vn 0.920422 0.086464 -0.381244
vn 0.704460 0.086464 -0.704457
vn 0.704460 0.086464 -0.704457
vn 0.381250 0.086464 -0.920420
vn 0.381250 0.086464 -0.920420
vn 0.000000 0.086464 -0.996255
vn -0.000000 0.086464 -0.996255
vn -0.381253 0.086464 -0.920419
vn -0.381253 0.086464 -0.920419
vn -0.704455 0.086465 -0.704462
vn -0.704455 0.086465 -0.704462
vn -0.920420 0.086464 -0.381250
vn -0.920420 0.086464 -0.381249
vn -0.996255 0.086464 -0.000002
vn -0.996255 0.086464 -0.000002
vn 0.000000 1.000000 0.000000
vn 0.000000 1.000000 0.000000
vn 0.000000 1.000000 -0.000000
vn 0.000000 1.000000 0.000000
vn 0.000000 1.000000 0.000000
vn 0.000000 1.000000 0.000000
vn 0.000000 1.000000 0.000000
vn 0.000000 1.000000 -0.000000
vn 0.000000 1.000000 0.000000
vn 0.000000 1.000000 0.000000
vn 0.000000 1.000000 0.000000
vn 0.000000 1.000000 0.000000
vn 0.000000 1.000000 0.000000
vn 0.000000 1.000000 0.000000
vn 0.000000 1.000000 0.000000
vn 0.000000 1.000000 0.000000
vn 0.000000 1.000000 -0.000000
vn 0.920419 -0.086464 -0.381251
vn 0.704458 -0.086464 -0.704460
vn 0.704458 -0.086464 -0.704460
vn 0.920419 -0.086464 -0.381251
vn 0.381252 -0.086465 -0.920419
vn 0.381251 -0.086465 -0.920419
vn 0.000000 -0.086465 -0.996255
vn 0.000000 -0.086465 -0.996255
vn -0.381246 -0.086464 -0.920421
vn -0.381246 -0.086464 -0.920421
vn -0.704458 -0.086464 -0.704460
vn -0.704458 -0.086464 -0.704459
vn -0.920419 -0.086464 -0.381251
vn -0.920419 -0.086464 -0.381251
vn -0.996255 -0.086464 -0.000003
vn -0.996255 -0.086464 -0.000003
vn -0.920420 -0.086464 0.381250
vn -0.920420 -0.086464 0.381250
vn -0.704457 -0.086464 0.704460
vn -0.704457 -0.086464 0.704460
vn -0.381252 -0.086464 0.920419
vn -0.381252 -0.086464 0.920419
vn -0.000003 -0.086464 0.996255
vn -0.000003 -0.086464 0.996255
vn 0.381252 -0.086464 0.920419
vn 0.381252 -0.086464 0.920419
vn 0.704460 -0.086464 0.704457
vn 0.704460 -0.086464 0.704457
vn 0.920420 -0.086464 0.381249
vn 0.920420 -0.086464 0.381249
vn 0.996255 -0.086464 0.000002
vn 0.996255 -0.086464 0.000002
vn 0.000000 -1.000000 -0.000000
vn 0.000000 -1.000000 0.000000
vn 0.000000 -1.000000 -0.000000
vn 0.000000 -1.000000 -0.000000
vn 0.000000 -1.000000 0.000000
vn 0.000000 -1.000000 0.000000
vn 0.000000 -1.000000 0.000000
vn 0.000000 -1.000000 0.000000
vn 0.000000 -1.000000 0.000000
vn 0.000000 -1.000000 0.000000
vn 0.000000 -1.000000 -0.000000
vn 0.000000 -1.000000 0.000000
vn 0.000000 -1.000000 0.000000
vn 0.000000 -1.000000 0.000000
vn 0.000000 -1.000000 0.000000
vn 0.000000 -1.000000 0.000000
vn 0.000000 -1.000000 0.000000
vn 0.061142 0.996255 -0.061143
vn 0.061144 0.996255 -0.061142
vn 0.079885 0.996255 -0.033090
vn 0.079885 0.996255 -0.033089
vn 0.033091 0.996254 -0.079891
vn 0.033092 0.996254 -0.079891
vn 0.000000 0.996254 -0.086474
vn -0.000000 0.996254 -0.086474
vn -0.033090 0.996254 -0.079889
vn -0.033091 0.996254 -0.079889
vn -0.061144 0.996254 -0.061145
vn -0.061144 0.996254 -0.061145
vn -0.079889 0.996254 -0.033091
vn -0.079890 0.996254 -0.033090
vn -0.086470 0.996255 0.000000
vn -0.086470 0.996255 0.000000
vn -0.079887 0.996255 0.033089
vn -0.079886 0.996255 0.033090
vn -0.061142 0.996255 0.061142
vn -0.061142 0.996255 0.061142
vn -0.033089 0.996255 0.079887
vn -0.033090 0.996255 0.079886
vn -0.000000 0.996254 0.086471
vn 0.000000 0.996254 0.086471
vn 0.033091 0.996255 0.079887
vn 0.033090 0.996255 0.079888
vn 0.061142 0.996255 0.061142
vn 0.061142 0.996255 0.061143
vn 0.079887 0.996255 0.033090
vn 0.079887 0.996255 0.033090
vn 0.086467 0.996255 0.000000
vn 0.086467 0.996255 0.000000
s 1
g M_Garbagecan
usemtl initialShadingGroup
f 34/17/1 37/104/2 36/103/3 35/18/4
f 35/18/4 36/103/3 39/105/5 38/19/6
f 38/19/6 39/105/5 41/106/7 40/20/8
f 40/20/8 41/106/7 43/107/9 42/21/10
f 42/21/10 43/107/9 45/108/11 44/22/12
f 44/22/12 45/108/11 47/109/13 46/23/14
f 46/23/14 47/109/13 49/110/15 48/24/16
f 48/24/16 49/110/15 51/111/17 50/25/18
f 50/25/18 51/111/17 53/112/19 52/26/20
f 52/26/20 53/112/19 55/113/21 54/27/22
f 54/27/22 55/113/21 57/114/23 56/28/24
f 56/28/24 57/114/23 59/115/25 58/29/26
f 58/29/26 59/115/25 61/116/27 60/30/28
f 60/30/28 61/116/27 63/117/29 62/31/30
f 62/31/30 63/117/29 65/118/31 64/32/32
f 64/32/32 65/118/31 37/119/2 34/33/1
s 2
f 35/2/33 66/51/34 34/1/35
f 38/3/36 66/51/34 35/2/33
f 40/4/37 66/51/34 38/3/36
f 42/5/38 66/51/34 40/4/37
f 44/6/39 66/51/34 42/5/38
f 46/7/40 66/51/34 44/6/39
f 48/8/41 66/51/34 46/7/40
f 50/9/42 66/51/34 48/8/41
f 52/10/43 66/51/34 50/9/42
f 54/11/44 66/51/34 52/10/43
f 56/12/45 66/51/34 54/11/44
f 58/13/46 66/51/34 56/12/45
f 60/14/47 66/51/34 58/13/46
f 62/15/48 66/51/34 60/14/47
f 64/16/49 66/51/34 62/15/48
f 34/1/35 66/51/34 64/16/49
s 3
f 1/52/50 2/53/51 18/54/52 17/55/53
f 2/53/51 3/56/54 19/57/55 18/54/52
f 3/56/54 4/58/56 20/59/57 19/57/55
f 4/58/56 5/60/58 21/61/59 20/59/57
f 5/60/58 6/62/60 22/63/61 21/61/59
f 6/62/60 7/64/62 23/65/63 22/63/61
f 7/64/62 8/66/64 24/67/65 23/65/63
f 8/66/64 9/68/66 25/69/67 24/67/65
f 9/68/66 10/70/68 26/71/69 25/69/67
f 10/70/68 11/72/70 27/73/71 26/71/69
f 11/72/70 12/74/72 28/75/73 27/73/71
f 12/74/72 13/76/74 29/77/75 28/75/73
f 13/76/74 14/78/76 30/79/77 29/77/75
f 14/78/76 15/80/78 31/81/79 30/79/77
f 15/80/78 16/82/80 32/83/81 31/81/79
f 16/82/80 1/84/50 17/85/53 32/83/81
s 4
f 2/86/82 1/87/83 33/88/84
f 3/89/85 2/86/82 33/88/84
f 4/90/86 3/89/85 33/88/84
f 5/91/87 4/90/86 33/88/84
f 6/92/88 5/91/87 33/88/84
f 7/93/89 6/92/88 33/88/84
f 8/94/90 7/93/89 33/88/84
f 9/95/91 8/94/90 33/88/84
f 10/96/92 9/95/91 33/88/84
f 11/97/93 10/96/92 33/88/84
f 12/98/94 11/97/93 33/88/84
f 13/99/95 12/98/94 33/88/84
f 14/100/96 13/99/95 33/88/84
f 15/101/97 14/100/96 33/88/84
f 16/102/98 15/101/97 33/88/84
f 1/87/83 16/102/98 33/88/84
s 5
f 18/35/99 36/103/100 37/104/101 17/34/102
f 19/36/103 39/105/104 36/103/100 18/35/99
f 20/37/105 41/106/106 39/105/104 19/36/103
f 21/38/107 43/107/108 41/106/106 20/37/105
f 22/39/109 45/108/110 43/107/108 21/38/107
f 23/40/111 47/109/112 45/108/110 22/39/109
f 24/41/113 49/110/114 47/109/112 23/40/111
f 25/42/115 51/111/116 49/110/114 24/41/113
f 26/43/117 53/112/118 51/111/116 25/42/115
f 27/44/119 55/113/120 53/112/118 26/43/117
f 28/45/121 57/114/122 55/113/120 27/44/119
f 29/46/123 59/115/124 57/114/122 28/45/121
f 30/47/125 61/116/126 59/115/124 29/46/123
f 31/48/127 63/117/128 61/116/126 30/47/125
f 32/49/129 65/118/130 63/117/128 31/48/127
f 17/50/102 37/119/101 65/118/130 32/49/129
