# This file uses centimeters as units for non-parametric coordinates.

mtllib M_Room.mtl
g default
v -407.476715 -0.000278 390.881653
v 552.097595 -0.000278 390.881653
v -407.476715 -0.000276 -130.662949
v 552.097534 -0.000278 -130.662964
v -407.476715 81.446999 390.881653
v -407.476715 81.446999 -130.662949
v -276.551880 292.773804 390.881653
v -276.551880 292.773804 -130.662949
v 552.097595 -0.000278 101.685738
v -407.476715 -0.000276 101.685738
v -407.476715 81.446999 101.685738
v -276.551880 292.773804 101.685738
v -276.551880 -0.000276 -130.662964
v -276.551880 -0.000276 101.685738
v -276.551880 -0.000278 390.881653
v 552.097534 292.773804 -130.662949
v -407.476715 81.446991 300.675629
v -276.551880 292.773804 300.675629
v -407.476715 81.446991 191.891891
v -276.551880 292.773804 191.891891
v -316.918854 227.262482 300.675629
v -316.918854 227.262482 191.891891
v -407.476715 227.262482 300.675629
v -407.476715 227.262482 191.891891
v -407.476715 218.255463 292.397675
v -407.476715 218.255463 200.169846
v -407.476715 90.454018 292.397675
v -407.476715 90.454018 200.169846
vt 0.408722 0.250000
vt 0.625000 0.250000
vt 0.625000 0.388625
vt 0.408722 0.388625
vt 0.000000 0.000000
vt 0.554499 0.000000
vt 0.554499 1.000000
vt 0.000000 1.000000
vt 0.000000 0.000000
vt 0.554499 0.000000
vt 0.554499 1.000000
vt 0.000000 1.000000
vt 0.625000 0.500000
vt 0.408722 0.500000
vt 0.687500 0.250000
vt 1.000000 0.500000
vt 1.000000 1.000000
vt 0.375000 0.388625
vt 0.375000 0.250000
vt 0.000000 0.000000
vt 1.000000 0.000000
vt 1.000000 1.000000
vt 0.000000 1.000000
vt 0.184833 -0.064359
vt 0.176150 1.000002
vt 0.184833 1.000000
vt 0.369665 -0.064359
vt 0.380755 1.000002
vt 0.369666 1.000000
vt 0.184833 0.500000
vt 0.369666 0.500000
vt 0.000000 0.000000
vt 1.000000 0.000000
vt 1.000000 1.000000
vt 0.000000 1.000000
vt 0.000000 0.000000
vt 1.000000 0.000000
vt 1.000000 1.019189
vt -0.000000 1.019189
vt 0.000000 0.000000
vt 1.000000 0.000000
vt 1.000000 1.019189
vt -0.000000 1.019189
vn 0.000000 1.000000 0.000000
vn 0.000000 1.000000 0.000000
vn 0.000000 1.000000 0.000000
vn 0.000000 1.000000 0.000000
vn 1.000000 0.000000 0.000000
vn 1.000000 0.000000 0.000000
vn 1.000000 0.000000 0.000000
vn 1.000000 0.000000 0.000000
vn 1.000000 0.000000 0.000000
vn 1.000000 0.000000 0.000000
vn 0.849844 -0.527033 0.001225
vn 0.849844 -0.527033 0.001225
vn 0.850256 -0.526368 0.000891
vn 0.850041 -0.526715 0.001066
vn 0.000000 1.000000 0.000000
vn 0.000000 1.000000 0.000000
vn 1.000000 0.000000 0.000000
vn 1.000000 0.000000 0.000000
vn 0.850072 -0.526666 -0.000183
vn 0.850021 -0.526749 -0.000303
vn 0.850079 -0.526655 0.000000
vn 0.850079 -0.526655 0.000000
vn 0.000000 1.000000 0.000000
vn 0.000000 1.000000 0.000000
vn 0.000000 1.000000 0.000000
vn 0.000000 -0.000000 1.000000
vn 0.000000 -0.000000 1.000000
vn 0.000000 -0.000000 1.000000
vn 0.000000 -0.000000 1.000000
vn 0.000000 -0.000000 1.000000
vn 0.000000 -0.000000 1.000000
vn 0.851355 -0.524590 0.000000
vn 0.850256 -0.526368 -0.000891
vn 0.851355 -0.524590 0.000000
vn 0.849844 -0.527033 -0.001225
vn 0.000000 -1.000000 0.000000
vn 0.000000 -1.000000 0.000000
vn 0.000000 -1.000000 0.000000
vn 0.000000 -1.000000 0.000000
vn 0.000000 0.000000 -1.000000
vn 0.000000 0.000000 -1.000000
vn 0.000000 0.000000 -1.000000
vn 0.000000 0.000000 1.000000
vn 0.000000 0.000000 1.000000
vn 0.000000 0.000000 1.000000
vn 1.000000 0.000001 0.000000
vn 1.000000 0.000001 0.000000
vn 1.000000 0.000001 0.000000
vn 1.000000 0.000001 0.000000
vn 1.000000 0.000000 0.000000
vn 1.000000 0.000000 0.000000
vn 1.000000 0.000000 0.000000
vn 1.000000 0.000000 0.000000
vn 1.000000 -0.000001 0.000000
vn 1.000000 -0.000001 0.000000
vn 1.000000 -0.000001 0.000000
vn 1.000000 -0.000001 0.000000
vn 1.000000 0.000000 0.000000
vn 1.000000 0.000000 0.000000
vn 1.000000 0.000000 0.000000
vn 1.000000 0.000000 0.000000
s 1
g M_Room
usemtl initialShadingGroup
f 15/1/1 2/2/2 9/3/3 14/4/4
s 2
f 1/5/5 10/6/6 11/7/7 19/28/8 17/25/9 5/8/10
s 3
f 5/9/11 17/24/12 21/30/13 7/12/14
s 1
f 14/4/4 9/3/3 4/13/15 13/14/16
s 2
f 11/7/7 10/6/6 3/15/17 6/16/18
s 3
f 12/11/19 11/10/20 6/16/21 8/17/22
s 1
f 10/18/23 14/4/4 13/14/16 3/15/24
f 1/19/25 15/1/1 14/4/4 10/18/23
s 5
f 3/15/26 13/14/27 8/17/28 6/16/29
f 8/20/28 13/21/27 4/22/30 16/23/31
s 3
f 18/26/32 21/30/13 22/31/33 20/29/34
f 20/29/34 22/31/33 12/11/19
f 12/11/19 22/31/33 19/27/35 11/10/20
f 7/12/14 21/30/13 18/26/32
s off
f 22/32/36 21/33/37 23/34/38 24/35/39
f 21/30/40 17/38/41 23/34/42
f 22/32/43 24/36/44 19/27/45
f 24/36/46 23/37/47 25/41/48 26/40/49
f 23/37/50 17/38/51 27/42/52 25/41/53
f 17/38/54 19/39/55 28/43/56 27/42/57
f 19/39/58 24/36/59 26/40/60 28/43/61
