# This file uses centimeters as units for non-parametric coordinates.

mtllib M_Woodenfloor.mtl
g default
v 552.097595 -0.000278 390.881653
v 795.972778 -0.000278 390.881653
v 552.097595 -0.000278 147.006470
v 795.972778 -0.000278 147.006470
vt 0.000000 0.000000
vt 1.000000 0.000000
vt 0.000000 1.000000
vt 1.000000 1.000000
vn 0.000000 1.000000 0.000000
vn 0.000000 1.000000 0.000000
vn 0.000000 1.000000 0.000000
vn 0.000000 1.000000 0.000000
s off
g M_Woodenfloor
usemtl initialShadingGroup
f 1/1/1 2/2/2 4/4/3 3/3/4
